<svg width="124" height="120" viewBox="0 0 124 120" fill="none" xmlns="http://www.w3.org/2000/svg">
<circle cx="62" cy="60" r="60" fill="#BCBCBC"/>
<path d="M62 59.1802C58.7 59.1802 56 58.1451 53.9 56.075C51.8 54.0048 50.75 51.3432 50.75 48.0901C50.75 44.837 51.8 42.1754 53.9 40.1052C56 38.0351 58.7 37 62 37C65.3 37 68 38.0351 70.1 40.1052C72.2 42.1754 73.25 44.837 73.25 48.0901C73.25 51.3432 72.2 54.0048 70.1 56.075C68 58.1451 65.3 59.1802 62 59.1802ZM42.5 82.913C41.25 82.913 40.1875 82.4818 39.3125 81.6192C38.4375 80.7566 38 79.7092 38 78.477V75.9632C38 74.0902 38.475 72.4883 39.425 71.1575C40.375 69.8267 41.6 68.8163 43.1 68.1262C46.45 66.6476 49.6625 65.5385 52.7375 64.7992C55.8125 64.0599 58.9 63.6902 62 63.6902C65.1 63.6902 68.175 64.0722 71.225 64.8362C74.275 65.6002 77.475 66.6968 80.825 68.1262C82.375 68.8163 83.625 69.8267 84.575 71.1575C85.525 72.4883 86 74.0902 86 75.9632V78.477C86 79.7092 85.5625 80.7566 84.6875 81.6192C83.8125 82.4818 82.75 82.913 81.5 82.913H42.5Z" fill="white"/>
</svg>
