<svg width="13" height="11" viewBox="0 0 13 11" fill="none" xmlns="http://www.w3.org/2000/svg">
<path d="M5.2 11L7.8 8.58904H11.7C12.0575 8.58904 12.3637 8.70698 12.6185 8.94285C12.8728 9.17912 13 9.46301 13 9.79452C13 10.126 12.8728 10.4099 12.6185 10.6462C12.3637 10.8821 12.0575 11 11.7 11H5.2ZM10.595 3.72192L7.8325 1.19041L8.7425 0.346575C8.99167 0.115525 9.29782 0 9.66095 0C10.0237 0 10.3296 0.115525 10.5788 0.346575L11.4887 1.19041C11.7379 1.42146 11.8679 1.70033 11.8788 2.02701C11.8896 2.3533 11.7704 2.63196 11.5213 2.86301L10.595 3.72192ZM0.65 11C0.465833 11 0.311567 10.9421 0.1872 10.8264C0.0624001 10.7111 0 10.568 0 10.3973V8.69452C0 8.61415 0.01625 8.5364 0.04875 8.46126C0.08125 8.38572 0.13 8.31781 0.195 8.25753L6.89 2.04932L9.6525 4.61096L2.9575 10.8192C2.8925 10.8795 2.81948 10.9247 2.73845 10.9548C2.65698 10.9849 2.57292 11 2.48625 11H0.65Z" fill="white"/>
</svg>
