<svg width="24" height="24" viewBox="0 0 24 24" fill="none" xmlns="http://www.w3.org/2000/svg">
<path d="M0 12C0 5.3726 5.3726 0 12 0C18.6274 0 24 5.3726 24 12C24 18.6274 18.6274 24 12 24C5.3726 24 0 18.6274 0 12Z" fill="#FFE812"/>
<path d="M12 5.5C7.5817 5.5 4 8.3241 4 11.8077C4 14.0599 5.4974 16.0361 7.74985 17.1521C7.6273 17.5747 6.9624 19.8709 6.9359 20.0513C6.9359 20.0513 6.92 20.1868 7.00775 20.2385C7.09555 20.2901 7.19875 20.25 7.19875 20.25C7.45045 20.2149 10.1175 18.3415 10.5791 18.0162C11.0403 18.0815 11.5151 18.1154 12 18.1154C16.4183 18.1154 20 15.2914 20 11.8077C20 8.3241 16.4183 5.5 12 5.5Z" fill="#381F1F"/>
<path fill-rule="evenodd" clip-rule="evenodd" d="M7.57686 14.0096C7.32231 14.0096 7.11531 13.8119 7.11531 13.5688V10.8269H6.39516C6.14541 10.8269 5.94226 10.6241 5.94226 10.375C5.94226 10.1258 6.14546 9.9231 6.39516 9.9231H8.75856C9.00831 9.9231 9.21146 10.1258 9.21146 10.375C9.21146 10.6241 9.00826 10.8269 8.75856 10.8269H8.03841V13.5688C8.03841 13.8119 7.83141 14.0096 7.57686 14.0096ZM11.6239 14.0036C11.4315 14.0036 11.2843 13.9255 11.2399 13.7998L11.0113 13.2015L9.60391 13.2014L9.37526 13.8001C9.33101 13.9255 9.18386 14.0036 8.99141 14.0036C8.89016 14.0037 8.79006 13.982 8.69801 13.9399C8.57076 13.8812 8.44846 13.7198 8.58861 13.2845L9.69261 10.3787C9.77041 10.1577 10.0066 9.93 10.3073 9.92315C10.6087 9.92995 10.8449 10.1577 10.9229 10.3791L12.0264 13.2837C12.1669 13.72 12.0446 13.8815 11.9173 13.94C11.8252 13.982 11.7252 14.0037 11.6239 14.0036ZM10.3076 11.0743L10.7686 12.3839H9.84661L10.3076 11.0743ZM12.7692 13.9423C12.5252 13.9423 12.3269 13.7525 12.3269 13.5192V10.3846C12.3269 10.1301 12.5382 9.9231 12.798 9.9231C13.0578 9.9231 13.2692 10.1301 13.2692 10.3846V13.0961H14.2499C14.4939 13.0961 14.6923 13.286 14.6923 13.5192C14.6923 13.7525 14.4939 13.9423 14.2499 13.9423H12.7692ZM14.8718 13.5421C14.8718 13.7966 15.0788 14.0036 15.3333 14.0036C15.4557 14.0034 15.5731 13.9547 15.6596 13.8682C15.7462 13.7816 15.7949 13.6643 15.795 13.5418V12.5348L15.9552 12.3747L17.0376 13.8088C17.0804 13.8661 17.1361 13.9125 17.2001 13.9444C17.2641 13.9762 17.3347 13.9926 17.4062 13.9923C17.5065 13.9925 17.6041 13.9598 17.6839 13.8991C17.7324 13.8628 17.7732 13.8172 17.8039 13.7649C17.8346 13.7127 17.8547 13.6548 17.8629 13.5948C17.8716 13.5347 17.8682 13.4736 17.8529 13.4149C17.8377 13.3562 17.811 13.3011 17.7743 13.2528L16.6382 11.7478L17.69 10.6961C17.7623 10.6238 17.7986 10.524 17.7919 10.4151C17.7852 10.3072 17.737 10.2033 17.6562 10.1225C17.5695 10.0359 17.4538 9.98625 17.3386 9.98625C17.2398 9.98625 17.1488 10.0227 17.0826 10.0889L15.7949 11.3766V10.3846C15.7949 10.1301 15.5879 9.9231 15.3333 9.9231C15.0788 9.9231 14.8718 10.1301 14.8718 10.3846V13.5421Z" fill="#FFE812"/>
</svg>
