<svg width="140" height="140" viewBox="0 0 140 140" fill="none" xmlns="http://www.w3.org/2000/svg">
<path d="M70.5919 69.2536L50.437 63.2817" stroke="#15B493" stroke-width="2" stroke-linecap="round"/>
<path d="M59.3947 65.5212L57.9017 56.5635" stroke="#15B493" stroke-width="2" stroke-linecap="round"/>
<path d="M59.3946 65.5212L52.6763 70.7466" stroke="#15B493" stroke-width="2" stroke-linecap="round"/>
<path d="M73.5778 67.7607V60.2959" stroke="#15B493" stroke-width="2" stroke-linecap="round"/>
<path d="M77.3102 66.2676L75.0708 73.7324" stroke="#15B493" stroke-width="2" stroke-linecap="round"/>
<path d="M34.7609 73.7326C34.7609 66.3092 45.8514 65.2487 46.7045 73.7326" stroke="#15B493" stroke-width="2"/>
<path d="M40.7328 67.7606C33.3705 64.8288 31.68 61.9192 34.2002 55.1372C36.8649 50.4663 40.1465 50.0882 49.1298 53.6442C49.5471 47.2283 50.6227 44.6864 56.5946 43.94C62.5664 43.1935 64.5845 48.796 67.0453 56.6301C70.0607 52.2595 71.5242 50.6583 76.003 51.4048C80.4819 52.1513 82.7213 57.3766 84.2143 61.109" stroke="#15B493" stroke-width="2" stroke-linecap="round" stroke-linejoin="round"/>
<path d="M63.8736 73.7323L88.5074 58.8027C91.2815 64.1686 91.2469 67.1437 88.5074 72.2394" stroke="#15B493" stroke-width="2" stroke-linecap="round" stroke-linejoin="round"/>
<path d="M94.5733 72.2394C93.9984 67.0789 96.0663 64.7747 100.545 64.7747C105.024 64.7747 106.517 68.5071 105.771 72.2394" stroke="#15B493" stroke-width="2" stroke-linecap="round"/>
<path d="M90.0003 61.7887C90.0003 61.7887 91.4933 57.3098 95.9722 58.0564C100.451 58.8029 101.944 62.5353 100.451 64.7747" stroke="#15B493" stroke-width="2" stroke-linecap="round"/>
<path d="M77.3102 65.5212L84.0285 72.986" stroke="#15B493" stroke-width="2" stroke-linecap="round"/>
<path d="M77.3102 65.2676C76.7579 65.2676 76.3102 65.7153 76.3102 66.2676C76.3102 66.8199 76.7579 67.2676 77.3102 67.2676V65.2676ZM77.3102 67.2676H90.7468V65.2676H77.3102V67.2676Z" fill="#15B493"/>
<path d="M19 75L119 75" stroke="#15B493" stroke-width="4"/>
<mask id="path-14-inside-1_34_30" fill="white">
<path fill-rule="evenodd" clip-rule="evenodd" d="M93 113.278C86.1417 116.93 78.3125 119 70 119C42.938 119 21 97.062 21 70C21 42.938 42.938 21 70 21C97.062 21 119 42.938 119 70C119 74.8648 118.291 79.564 116.971 84H98C95.2386 84 93 86.2386 93 89V113.278ZM93 117.763C86.0433 121.119 78.2413 123 70 123C40.7289 123 17 99.2711 17 70C17 40.7289 40.7289 17 70 17C99.2711 17 123 40.7289 123 70C123 75.1763 122.258 80.1792 120.874 84.9083C120.061 84.336 119.07 84 118 84H116.971C113.203 96.6606 104.456 107.177 93 113.278V117.763ZM93 117.763V118C93 120.761 95.2386 123 98 123H118C120.761 123 123 120.761 123 118V89C123 87.3085 122.16 85.8131 120.874 84.9083C116.637 99.3922 106.382 111.307 93 117.763Z"/>
</mask>
<path fill-rule="evenodd" clip-rule="evenodd" d="M93 113.278C86.1417 116.93 78.3125 119 70 119C42.938 119 21 97.062 21 70C21 42.938 42.938 21 70 21C97.062 21 119 42.938 119 70C119 74.8648 118.291 79.564 116.971 84H98C95.2386 84 93 86.2386 93 89V113.278ZM93 117.763C86.0433 121.119 78.2413 123 70 123C40.7289 123 17 99.2711 17 70C17 40.7289 40.7289 17 70 17C99.2711 17 123 40.7289 123 70C123 75.1763 122.258 80.1792 120.874 84.9083C120.061 84.336 119.07 84 118 84H116.971C113.203 96.6606 104.456 107.177 93 113.278V117.763ZM93 117.763V118C93 120.761 95.2386 123 98 123H118C120.761 123 123 120.761 123 118V89C123 87.3085 122.16 85.8131 120.874 84.9083C116.637 99.3922 106.382 111.307 93 117.763Z" fill="#9BE8D8"/>
<path d="M70 123C78.9841 123 87.4572 120.761 94.8802 116.808L91.1198 109.747C84.8261 113.099 77.641 115 70 115V123ZM17 70C17 99.2711 40.7289 123 70 123V115C45.1472 115 25 94.8528 25 70H17ZM70 17C40.7289 17 17 40.7289 17 70H25C25 45.1472 45.1472 25 70 25V17ZM123 70C123 40.7289 99.2711 17 70 17V25C94.8528 25 115 45.1472 115 70H123ZM120.805 85.141C122.234 80.3387 123 75.2553 123 70H115C115 74.4743 114.348 78.7894 113.137 82.859L120.805 85.141ZM98 88H116.971V80H98V88ZM97 89C97 88.4477 97.4477 88 98 88V80C93.0294 80 89 84.0294 89 89H97ZM97 113.278V89H89V113.278H97ZM70 127C78.856 127 87.2509 124.978 94.738 121.366L91.262 114.16C84.8356 117.26 77.6266 119 70 119V127ZM13 70C13 101.48 38.5198 127 70 127V119C42.938 119 21 97.062 21 70H13ZM70 13C38.5198 13 13 38.5198 13 70H21C21 42.938 42.938 21 70 21V13ZM127 70C127 38.5198 101.48 13 70 13V21C97.062 21 119 42.938 119 70H127ZM124.713 86.0315C126.203 80.9413 127 75.5603 127 70H119C119 74.7922 118.313 79.4171 117.035 83.7852L124.713 86.0315ZM118 88C118.219 88 118.411 88.066 118.572 88.1794L123.177 81.6372C121.712 80.6061 119.921 80 118 80V88ZM116.971 88H118V80H116.971V88ZM94.8802 116.808C107.266 110.212 116.727 98.8427 120.805 85.141L113.137 82.859C109.679 94.4785 101.645 104.142 91.1198 109.747L94.8802 116.808ZM97 117.763V113.278H89V117.763H97ZM97 118V117.763H89V118H97ZM98 119C97.4477 119 97 118.552 97 118H89C89 122.971 93.0294 127 98 127V119ZM118 119H98V127H118V119ZM119 118C119 118.552 118.552 119 118 119V127C122.971 127 127 122.971 127 118H119ZM119 89V118H127V89H119ZM118.572 88.1794C118.839 88.3672 119 88.665 119 89H127C127 85.9519 125.481 83.259 123.177 81.6372L118.572 88.1794ZM94.738 121.366C109.127 114.424 120.154 101.616 124.713 86.0315L117.035 83.7852C113.12 97.1684 103.638 108.19 91.262 114.16L94.738 121.366Z" fill="#15B493" mask="url(#path-14-inside-1_34_30)"/>
<rect x="95" y="86" width="26" height="35" rx="3" fill="#9BE8D8" stroke="#15B493" stroke-width="4"/>
<rect x="96" y="87" width="24" height="33" rx="3" fill="white"/>
<rect x="100.5" y="89.5" width="15" height="4" rx="1.5" fill="#15B493" stroke="#15B493"/>
</svg>
